<?xml version="1.0" encoding="UTF-8"?>
<svg id="Layer_2" data-name="Layer 2" xmlns="http://www.w3.org/2000/svg" viewBox="0 0 500 500">
  <defs>
    <style>
      .cls-1 {
        fill: #000;
      }

      .cls-1, .cls-2 {
        stroke-width: 0px;
      }

      .cls-2 {
        fill: #fff;
      }
    </style>
  </defs>
  <g id="Layer_1-2" data-name="Layer 1">
    <g>
      <path class="cls-2" d="M467.72,500H32.28c-17.83,0-32.28-14.45-32.28-32.28V32.28C0,14.45,14.45,0,32.28,0h435.72c17.67,0,32,14.33,32,32v435.72c0,17.83-14.45,32.28-32.28,32.28Z"/>
      <g>
        <g>
          <path class="cls-1" d="M138.8,47.81c12.44,8,18.02,15.88,21.01,30.15,1.55,6.08,1.87,13.42-1.05,18.92-1.83,1.95-5.15,2.93-9.95,2.93-3.42,0-6.04-.82-7.87-2.45s-3.4-4.66-4.7-9.07c-2.12-7.76-5.49-13.33-10.13-16.72-4.64-3.39-11.07-5.08-19.29-5.08-12.53,0-22.14,4.24-28.81,12.71-6.67,8.47-10.01,20.74-10.01,36.79s3.38,28.23,10.13,36.79c6.75,8.56,16.4,12.83,28.93,12.83,8.54,0,17.96-2.85,28.26-8.54,10.29-5.7,16.79-8.54,19.47-8.54,3.17,0,5.84,1.34,8,4.03,2.16,2.69,3.24,6.02,3.24,10.01,0,7.16-6.31,13.92-18.92,20.26-12.62,6.35-26.82,9.52-42.6,9.52-21.32,0-38.57-7.04-51.76-21.12-13.18-14.08-19.78-32.47-19.78-55.18s6.67-40.08,20.02-54.57c13.35-14.48,30.27-21.73,50.78-21.73,12.33.05,23.58,3.18,35.03,8.06"/>
          <path class="cls-1" d="M250.5,73.08c19.78,0,35.81,5.54,48.1,16.6,12.29,11.07,18.43,25.27,18.43,42.6s-6.15,31.66-18.43,42.72c-12.29,11.07-28.32,16.6-48.1,16.6s-35.69-5.53-47.97-16.6c-12.29-11.07-18.43-25.31-18.43-42.72s6.16-31.53,18.49-42.6c12.33-11.07,28.3-16.6,47.91-16.6ZM250.5,98.83c-9.52,0-17.35,3.11-23.5,9.34-6.15,6.23-9.22,14.18-9.22,23.87s3.07,17.84,9.22,24.23c6.14,6.39,13.98,9.58,23.5,9.58s17.37-3.19,23.56-9.58c6.18-6.39,9.28-14.46,9.28-24.23s-3.07-17.64-9.22-23.87c-6.15-6.22-14.02-9.34-23.62-9.34Z"/>
          <path class="cls-1" d="M417.61,161.82h16.25c5.62,0,9.6,1.02,11.96,3.05,2.36,2.04,3.54,5.41,3.54,10.13s-1.2,8.26-3.6,10.38c-2.4,2.12-6.37,3.17-11.9,3.17h-62.52c-5.54,0-9.5-1.06-11.9-3.17-2.4-2.12-3.6-5.57-3.6-10.38s1.16-8.1,3.48-10.13c2.32-2.03,6.33-3.05,12.02-3.05h16.25v-59.33h-13.79c-5.45,0-9.36-1.04-11.72-3.11-2.36-2.07-3.54-5.51-3.54-10.31s1.14-8.22,3.42-10.25c2.28-2.03,6.23-3.05,11.84-3.05h36.74c2.28,0,4.03.47,5.25,1.4,1.22.94,1.83,2.22,1.83,3.85v80.81ZM400.03,20.59c5.94,0,9.89,1.14,11.84,3.42,1.95,2.28,2.93,7.73,2.93,16.36s-.88,13.45-2.62,15.44c-1.75,1.99-5.88,2.99-12.39,2.99s-10.44-.93-12.27-2.81c-1.83-1.87-2.75-5.62-2.75-11.23,0-10.42.93-17.05,2.81-19.9,1.87-2.85,6.02-4.27,12.45-4.27Z"/>
          <path class="cls-1" d="M300.82,301.58h1.59c4.56,0,7.97,1.12,10.25,3.36,2.28,2.24,3.42,5.6,3.42,10.07,0,4.8-1.16,8.26-3.48,10.38-2.32,2.12-6.25,3.17-11.78,3.17h-30.03c-5.45,0-9.38-1.06-11.78-3.17-2.4-2.12-3.6-5.57-3.6-10.38,0-4.47,1.16-7.83,3.48-10.07,2.32-2.24,5.8-3.36,10.44-3.36h1.46v-35.28c0-9.77-1.36-16.7-4.09-20.81-2.73-4.11-7.26-6.16-13.61-6.16-6.76,0-12.27,2.46-16.54,7.38-4.27,4.93-6.41,11.46-6.41,19.59v35.28h1.46c4.64,0,8.1,1.12,10.38,3.36,2.28,2.24,3.42,5.6,3.42,10.07,0,4.8-1.18,8.26-3.54,10.38-2.36,2.12-6.27,3.17-11.72,3.17h-30.27c-5.45,0-9.36-1.06-11.72-3.17-2.36-2.12-3.54-5.57-3.54-10.38,0-4.47,1.14-7.83,3.42-10.07,2.28-2.24,5.74-3.36,10.38-3.36h1.46v-59.08h-2.08c-4.39,0-7.73-1.12-10.01-3.36-2.28-2.24-3.42-5.51-3.42-9.83,0-4.8,1.18-8.26,3.54-10.38,2.36-2.12,6.35-3.17,11.96-3.17h20.75c2.28,0,4.01.45,5.19,1.34,1.18.9,1.77,2.2,1.77,3.91v9.52c3.74-5.86,8.52-10.27,14.34-13.24,5.82-2.97,12.55-4.46,20.2-4.46,13.02,0,22.72,3.95,29.11,11.84,6.39,7.89,9.58,19.94,9.58,36.13v40.77Z"/>
          <path class="cls-1" d="M87.63,353.01c0-1.63.61-2.91,1.83-3.85,1.22-.93,2.97-1.4,5.25-1.4h36.74c5.62,0,9.56,1.02,11.84,3.05,2.28,2.04,3.42,5.45,3.42,10.25s-1.18,8.24-3.54,10.31c-2.36,2.08-6.27,3.11-11.72,3.11h-13.79s0,59.33,0,59.33h16.25c5.7,0,9.7,1.02,12.02,3.05,2.32,2.04,3.48,5.41,3.48,10.13s-1.2,8.26-3.6,10.38c-2.4,2.12-6.37,3.17-11.9,3.17h-62.52c-5.53,0-9.5-1.06-11.9-3.17-2.4-2.12-3.6-5.57-3.6-10.38s1.18-8.1,3.54-10.13c2.36-2.03,6.35-3.05,11.96-3.05h16.25s0-80.81,0-80.81ZM117.66,296.86c1.87,2.85,2.81,9.48,2.81,19.9,0,5.62-.92,9.36-2.75,11.23-1.83,1.87-5.92,2.81-12.27,2.81s-10.64-1-12.39-2.99c-1.75-1.99-2.62-7.14-2.62-15.44s.98-14.08,2.93-16.36c1.95-2.28,5.9-3.42,11.84-3.42,6.43,0,10.58,1.42,12.45,4.27Z"/>
          <path class="cls-1" d="M250.59,345.08c19.78,0,35.81,5.54,48.1,16.6,12.29,11.07,18.43,25.27,18.43,42.6s-6.15,31.66-18.43,42.72c-12.29,11.07-28.32,16.6-48.1,16.6s-35.69-5.53-47.97-16.6c-12.29-11.07-18.43-25.31-18.43-42.72s6.16-31.53,18.49-42.6c12.33-11.07,28.3-16.6,47.91-16.6ZM250.59,370.83c-9.52,0-17.35,3.11-23.5,9.34-6.15,6.23-9.22,14.18-9.22,23.87s3.07,17.84,9.22,24.23c6.14,6.39,13.98,9.58,23.5,9.58s17.37-3.19,23.56-9.58c6.18-6.39,9.28-14.46,9.28-24.23s-3.07-17.64-9.22-23.87c-6.15-6.22-14.02-9.34-23.62-9.34Z"/>
        </g>
        <path class="cls-1" d="M362.38,319.9c11.45-4.87,22.71-8,35.03-8.06,20.51,0,37.44,7.24,50.78,21.73,13.35,14.49,20.02,32.67,20.02,54.57,0,22.71-6.59,41.1-19.78,55.18-13.18,14.08-30.44,21.12-51.76,21.12-15.79,0-29.99-3.17-42.6-9.52-12.61-6.35-18.92-13.1-18.92-20.26,0-3.99,1.08-7.32,3.24-10.01,2.16-2.69,4.82-4.03,8-4.03,2.69,0,9.18,2.85,19.47,8.54,10.3,5.7,19.71,8.54,28.26,8.54,12.53,0,22.18-4.28,28.93-12.83,6.76-8.56,10.13-20.82,10.13-36.79s-3.34-28.31-10.01-36.79c-6.67-8.47-16.28-12.71-28.81-12.71-8.22,0-14.65,1.7-19.29,5.08-4.64,3.39-8.01,8.96-10.13,16.72-1.3,4.41-2.87,7.43-4.7,9.07s-4.46,2.45-7.87,2.45c-4.8,0-8.12-.98-9.95-2.93-2.92-5.51-2.6-12.84-1.05-18.92,2.99-14.27,8.57-22.15,21.01-30.15"/>
      </g>
    </g>
  </g>
</svg>